<?xml version="1.0" encoding="UTF-8"?>
<svg id="Layer_1" data-name="Layer 1" xmlns="http://www.w3.org/2000/svg" viewBox="0 0 30.3 39.89">
  <path d="M9.58,0C4.25.05,0,4.47,0,9.8v14.58c.76-1.3,1.8-2.42,3.04-3.26,1.04-.71,1.69-1.88,1.69-3.14h0c1.45.87,3.14,1.38,4.95,1.38,5.34,0,9.68-4.34,9.68-9.68S14.96-.05,9.58,0ZM9.68,14.62c-2.73,0-4.95-2.22-4.95-4.95s2.22-4.95,4.95-4.95,4.95,2.22,4.95,4.95-2.22,4.95-4.95,4.95ZM30.3,29.49v10.4s-4.68,0-4.68,0v-10.4c0-2.24-1.82-4.06-4.06-4.06-2.24,0-4.06,1.82-4.06,4.06v10.4s-4.68,0-4.68,0v-10.4c0-2.24-1.82-4.06-4.06-4.06-2.24,0-4.06,1.82-4.06,4.06v10.4s-4.68,0-4.68,0v-10.4c0-4.82,3.92-8.74,8.74-8.74,2.53,0,4.81,1.09,6.4,2.81,1.6-1.72,3.87-2.81,6.4-2.81,4.82,0,8.74,3.92,8.74,8.74Z"/>
</svg>