<?xml version="1.0" encoding="UTF-8"?>
<svg id="Layer_1" data-name="Layer 1" xmlns="http://www.w3.org/2000/svg" xmlns:xlink="http://www.w3.org/1999/xlink" viewBox="0 0 2335.12 787.22">
  <defs>
    <style>
      .cls-1 {
        fill: #ffffff;
      }
      .cls-2 {
        fill: url(#linear-gradient);
      }
    </style>
    <linearGradient id="linear-gradient" x1="802.16" y1="487.14" x2="2335.12" y2="487.14" gradientUnits="userSpaceOnUse">
      <stop offset="0" stop-color="#ddc79a"/>
      <stop offset="1" stop-color="#a78e5e"/>
    </linearGradient>
  </defs>
  <path class="cls-2" d="M2210.34,588.63c-3.46-100.62-86.18-181.45-187.62-181.45-103.64,0-187.96,84.3-187.96,187.94,0,103.64,84.32,187.96,187.96,187.96,35.13,0,67.92-9.87,96.08-26.71v26.71h91.87s0-194.45,0-194.45h-.33ZM2022.71,691.21c-52.98,0-96.09-43.11-96.09-96.09s43.1-96.07,96.09-96.07c52.98,0,96.08,43.09,96.08,96.07s-43.1,96.09-96.08,96.09ZM1396.96,578.83v204.26s-91.87,0-91.87,0v-204.26c0-43.99-35.8-79.79-79.8-79.79-44,0-79.79,35.8-79.79,79.79v204.26s-91.87,0-91.87,0v-204.26c0-43.99-35.8-79.79-79.8-79.79s-79.8,35.8-79.8,79.79v204.26s-91.87,0-91.87,0v-204.26c0-94.65,77.01-171.66,171.67-171.66,49.68,0,94.36,21.34,125.73,55.18,31.37-33.84,76.05-55.18,125.72-55.18,94.66,0,171.67,77.01,171.67,171.66ZM2335.12,787.22h-91.87V232.99c0-25.37,20.57-45.94,45.93-45.94h0c25.37,0,45.94,20.57,45.94,45.94v554.23ZM1809.03,587.96v47.22h-193.15v-94.44h86.71c-16.77-30.66-49.38-51.53-86.71-51.53-54.49,0-98.79,44.31-98.79,98.75s44.31,98.75,98.79,98.75h181.41v94.44h-181.41c-106.52,0-193.19-86.67-193.19-193.19s86.67-193.15,193.19-193.15,193.15,86.63,193.15,193.15Z"/>
  <path class="cls-1" d="M1732.57,0c-104.76,0-189.99,85.21-189.99,189.97s85.23,189.99,189.99,189.99,189.99-85.23,189.99-189.99S1837.33,0,1732.57,0ZM1732.57,287.1c-53.55,0-97.13-43.57-97.13-97.13s43.58-97.11,97.13-97.11,97.13,43.56,97.13,97.11-43.57,97.13-97.13,97.13ZM188.11.01C83.52,1.03,0,87.82,0,192.41v324.52c0,25.64,20.79,46.43,46.43,46.43h0c25.64,0,46.43-20.79,46.43-46.43v-163.97c28.46,17.03,61.61,27,97.13,27,104.76,0,189.99-85.23,189.99-189.99S293.73-1.01,188.11.01ZM189.99,287.1c-53.55,0-97.13-43.57-97.13-97.13s43.57-97.11,97.13-97.11,97.13,43.56,97.13,97.11-43.57,97.13-97.13,97.13ZM990.26,0c-104.59,1.02-188.1,87.82-188.1,192.41v286.25c14.94-25.52,35.4-47.42,59.74-64.06,20.48-14,33.13-36.84,33.13-61.65h0c28.48,17.05,61.62,27.01,97.13,27.01,104.76,0,190-85.24,190-190S1095.88-1.03,990.26,0ZM992.15,287.1c-53.56,0-97.13-43.57-97.13-97.13s43.57-97.1,97.13-97.1,97.13,43.57,97.13,97.1-43.57,97.13-97.13,97.13ZM781.05,189.97v46.44h-189.96v-92.88h85.28c-16.49-30.16-48.56-50.68-85.28-50.68-53.59,0-97.16,43.57-97.16,97.12s43.57,97.12,97.16,97.12h178.41v92.88h-178.41c-104.76,0-190-85.24-190-190S486.32,0,591.09,0s189.96,85.2,189.96,189.96ZM1399.03,99.56v279.55h-92.86V99.56h-143.55V6.7h379.97v92.86h-143.55Z"/>
</svg>
